<svg xmlns="http://www.w3.org/2000/svg" viewBox="0 0 159.67 158.6"><defs><style>.cls-1{fill:none;stroke:#58595b;stroke-linecap:round;stroke-linejoin:round;stroke-width:0.75px;}</style></defs><g data-name="Layer 2"><g data-name="Layer 1"><path class="cls-1" d="M112.68,20.54c37.21,16,50.58,49.27,33.54,89.59s-52.66,54.21-87.47,42.53C15.78,138.24-10,82.44,12.47,45.09,35,7.56,74.74,4.23,112.68,20.54Z"></path><path class="cls-1" d="M22.18,42.4c18.33-33.2,47.4-47,85.31-30.71,39.59,17,59.66,44.77,40.84,90.11C132.41,140.17,86.59,166.42,47,149.41S.94,80.85,22.18,42.4Z"></path><path class="cls-1" d="M159.3,80.64c0,47.17-29.93,77.59-76.38,77.59S2.84,134.71,2.84,88.6,36.46.38,82.92.38,159.28,35.87,159.3,80.64Z"></path><path class="cls-1" d="M86.49,5c45.92-.16,70.75,27.53,66.41,70.54-4.57,45.11-16.42,77.27-65.11,77.66C42.45,153.57.38,120.39.38,75.05S41.15,5.17,86.49,5Z"></path><path class="cls-1" d="M44.84,138.53C6.43,123.37-4.48,95.25,10.68,56.84S55.86-1.82,94.27,13.32c39.21,15.45,63.32,57.13,47.91,95.44C127.17,146.09,83.24,153.7,44.84,138.53Z"></path></g></g></svg>